<!-- icon666.com - MILLIONS vector ICONS FREE --><svg version="1.1" id="Capa_1" xmlns="http://www.w3.org/2000/svg" xmlns:xlink="http://www.w3.org/1999/xlink" x="0px" y="0px" viewBox="0 0 472.4 472.4" style="enable-background:new 0 0 472.4 472.4;" xml:space="preserve"><g><g><path d="M458.9,0H104.6c-7.5,0-13.5,6-13.5,13.5v354.3c0,7.5,6,13.5,13.5,13.5h354.3c7.5,0,13.5-6,13.5-13.5V13.5 C472.4,6,466.4,0,458.9,0z M445.4,354.3H118.1V27h327.3L445.4,354.3L445.4,354.3z" fill="#000000" style="fill: rgb(255, 255, 255);"></path><path d="M367.8,445.4H27V104.6c0-7.5-6-13.5-13.5-13.5S0,97.1,0,104.6v354.3c0,7.5,6,13.5,13.5,13.5h354.3c7.5,0,13.5-6,13.5-13.5 S375.3,445.4,367.8,445.4z" fill="#000000" style="fill: rgb(255, 255, 255);"></path><path d="M205.2,204.2h63v63c0,7.5,6,13.5,13.5,13.5s13.5-6,13.5-13.5v-63h63.1c7.5,0,13.5-6,13.5-13.5s-6-13.5-13.5-13.5h-63.1 v-63.1c0-7.5-6-13.5-13.5-13.5s-13.5,6-13.5,13.5v63.1h-63c-7.5,0-13.5,6-13.5,13.5S197.7,204.2,205.2,204.2z" fill="#000000" style="fill: rgb(255, 255, 255);"></path></g></g></svg>