<!-- icon666.com - MILLIONS vector ICONS FREE --><svg viewBox="0 0 24 24" xmlns="http://www.w3.org/2000/svg"><g id="Layer_2" data-name="Layer 2"><path d="m7 11a1 1 0 0 1 -1-1v-3a6 6 0 0 1 11.88-1.2 1 1 0 1 1 -1.96.4 4 4 0 0 0 -7.92.8v3a1 1 0 0 1 -1 1z" fill="#ffffff" style="fill: rgb(255, 255, 255);"></path><path d="m20 9h-16a1 1 0 0 0 -1 1v12a1 1 0 0 0 1 1h16a1 1 0 0 0 1-1v-12a1 1 0 0 0 -1-1zm-8 10a3 3 0 1 1 3-3 3 3 0 0 1 -3 3z" fill="#ffffff" style="fill: rgb(255, 255, 255);"></path></g></svg>